<?xml version="1.0" encoding="UTF-8"?>
<svg id="Layer_2" data-name="Layer 2" xmlns="http://www.w3.org/2000/svg" viewBox="0 0 768.61 289.37">
  <defs>
    <style>
      .cls-1 {
        fill: #1158bb;
      }
    </style>
  </defs>
  <g id="Layer_1-2" data-name="Layer 1">
    <g>
      <path class="cls-1" d="M244.55,0H44.78C20.05,0,0,20.05,0,44.78v199.79c0,24.75,20.05,44.8,44.78,44.8h199.77c24.74,0,44.8-20.06,44.8-44.8V44.8c0-24.73-20.05-44.8-44.8-44.8ZM243.4,31.02c8.26,0,14.95,6.69,14.95,14.95v182.54l-78.03-80.25c-1.73-1.78-1.82-4.58-.22-6.47l34.31-40.49s11.64-13.97,11.64-34.93c0-11.62-6.45-25.38-12.18-35.35h29.53ZM45.94,258.35c-8.26,0-14.95-6.69-14.95-14.95V45.94c0-8.24,6.68-14.93,14.93-14.93h22.17c10.61,0,21.04,4.04,28.18,11.88,5.12,5.63,8.7,13.11,8.7,23.04,0,0,0,11.64-11.64,25.61-8.54,10.25-30.75,34.04-41.99,46-3.78,4.02-3.77,10.25,0,14.26,11.24,11.96,33.45,35.74,41.99,45.98,11.64,13.97,11.64,25.61,11.64,25.61,0,34.93-41.43,34.93-41.43,34.93h-17.6ZM125.63,258.35c5.68-9.92,11.95-23.47,11.95-34.93,0-20.96-11.64-34.93-11.64-34.93l-34.5-40.69c-1.52-1.8-1.52-4.43,0-6.23l34.5-40.71s11.64-13.97,11.64-34.93c0-11.46-6.26-25.01-11.95-34.93h28.94c10.15,0,20.18,3.38,27.69,10.21,6.46,5.87,11.2,13.98,11.2,25.14,0,0,0,11.64-11.64,25.61-8.53,10.24-30.71,34-41.96,45.97-3.79,4.04-3.76,10.32.06,14.33l101.02,106.08h-115.31Z"/>
      <rect class="cls-1" x="729.03" y="26.36" width="39.59" height="235.18"/>
      <path class="cls-1" d="M485.83,132.17c12.67-9.97,21.98-24.38,21.98-45.27,0-65.2-69.09-60.54-69.09-60.54h-91.58v235.18h102.46s69.86,4.66,69.86-69.86c0-35.56-16.44-52.02-33.62-59.52ZM444.94,61.29s27.43,0,27.43,29.06c0,11.62-2.89,18.88-6.36,23.41-3.68,4.8-9.49,7.46-15.54,7.46h-63.74v-59.94h58.21ZM438.72,228.5h-52v-74.07h60.64s34.84-2.33,34.84,37.26-43.47,36.81-43.47,36.81Z"/>
      <path class="cls-1" d="M667.96,261.54h43.57l-65.05-92.13c17.1-2.91,59.27-16.11,59.27-75.53,0-74.51-75.27-67.53-75.27-67.53h-97.05v235.18h39.59v-91.3h30.54l64.41,91.3ZM573.01,61.29h61.35c7.35,0,14.65,2.06,20.61,6.36,7.22,5.2,14.43,14.43,14.43,30.56,0,12.1-4.39,20.74-9.87,26.81-7.74,8.57-18.99,13.1-30.53,13.1h-55.99V61.29Z"/>
    </g>
  </g>
</svg>